<svg width="800" height="600" xmlns="http://www.w3.org/2000/svg">

 <g>
  <title>Layer 1</title>
  <text transform="matrix(1.21226 0 0 1.33053 -85.409 -104.488)" stroke="#000" stroke-width="0" opacity="0.88" font-weight="bold" font-style="italic" xml:space="preserve" text-anchor="start" font-family="'Crimson Pro'" font-size="24" id="svg_2" y="309.11412" x="409.03872" fill="#7f00ff">Chavvi</text>
  <g stroke="null">
   <g stroke="null">
    <g stroke="null">
     <g stroke="null">
      <path stroke="null" fill="#6b10cc" d="m533.06458,289.89827l-1.18584,-0.8998c-1.25282,-0.94671 -3.50684,-1.08275 -5.02411,-0.30332l-14.26913,7.32018c-0.19893,-0.01164 -0.39956,-0.01792 -0.60172,-0.01792c-1.46982,0 -2.90519,0.32129 -4.04143,0.9045c-1.24982,0.64076 -3.88395,2.50711 -5.96041,4.4049c-2.80899,2.5673 -3.63011,4.22775 -2.50986,5.07657c0.45777,0.34616 1.2016,0.52163 2.21081,0.52163c4.1191,0 12.40421,-2.88394 14.34887,-3.88192c1.31164,-0.67286 2.12399,-1.62375 2.28778,-2.67751l14.25929,-7.3163c0.7366,-0.37755 1.19276,-0.9114 1.28434,-1.50314c0.09159,-0.59179 -0.1924,-1.1702 -0.79858,-1.62787zm-16.27554,10.35419c-0.12388,0.79932 -0.73991,1.52053 -1.73481,2.0309c-2.01226,1.03263 -9.9025,3.66337 -13.37127,3.66337c-0.01784,0 -0.03507,-0.00024 -0.0526,-0.00038l11.28081,-5.84057c0.32666,-0.1691 0.37142,-0.47122 0.10004,-0.67478c-0.27137,-0.20356 -0.75629,-0.23154 -1.08287,-0.06234l-11.38147,5.8927c0.11958,-0.58704 0.79066,-1.66424 2.70587,-3.41463c1.9369,-1.77018 4.49382,-3.60328 5.6672,-4.20489c0.86179,-0.44238 1.94989,-0.68599 3.06391,-0.68599c1.44867,0 2.80646,0.3993 3.72592,1.09598c0.81981,0.61972 1.20306,1.40126 1.07926,2.20063zm1.4293,-1.09622c-0.20655,-0.62279 -0.65386,-1.20902 -1.32133,-1.71359c-0.66793,-0.50616 -1.51188,-0.893 -2.4545,-1.13863l1.9815,-1.01648l3.70224,2.88974l-1.90791,0.97896zm14.11403,-7.72216c-0.05221,0.33662 -0.31159,0.64033 -0.73084,0.85519l-10.28791,5.27878l-3.70224,-2.88964l10.22116,-5.24351c0.86341,-0.44353 2.14621,-0.36581 2.85859,0.1726l1.18615,0.89999c0.34558,0.26082 0.50722,0.58992 0.45508,0.92659z"/>
      <path stroke="null" fill="#6b10cc" d="m523.45361,306.86121c-2.21258,-1.03642 -5.86299,-0.8343 -10.84964,0.6007c-6.64719,1.91274 -9.86582,1.66869 -11.39546,1.12717c-1.46267,-0.51785 -1.63292,-1.39695 -1.64061,-1.44147c-0.03999,-0.26192 -0.41225,-0.45522 -0.83296,-0.43188c-0.42301,0.02319 -0.73576,0.25569 -0.69862,0.51933c0.00807,0.05664 0.2207,1.39594 2.37345,2.17332c2.67735,0.96684 6.99707,0.60468 12.83891,-1.07643c4.36625,-1.25641 7.57388,-1.50093 9.27578,-0.70698c1.96074,0.91461 1.49212,2.99242 1.48735,3.01241c-0.06383,0.26163 0.22477,0.50601 0.64463,0.54583c0.03922,0.00374 0.07813,0.00551 0.11665,0.00551c0.37357,0 0.70131,-0.16996 0.75921,-0.40716c0.02645,-0.10796 0.61472,-2.65863 -2.0787,-3.92035z"/>
     </g>
    </g>
   </g>
  </g>
 </g>
</svg>