<?xml version="1.0" encoding="utf-8"?>
<!-- Uploaded to: SVG Repo, www.svgrepo.com, Generator: SVG Repo Mixer Tools -->
<svg width="800px" height="800px" viewBox="0 0 24 24" fill="none" xmlns="http://www.w3.org/2000/svg">
<g clip-path="url(#clip0_15_56)">
<rect width="24" height="24" fill="white"/>
<path d="M15 18H19C20.6961 17.7573 22 16.2632 22 14.5C22 12.7096 20.6556 11.2331 18.9212 11.0251C18.4555 8.175 15.9818 6 13 6C10.7118 6 8.72277 7.2809 7.71081 9.1648C7.32556 9.0574 6.91949 9 6.5 9C4.01472 9 2 11.0147 2 13.5C2 15.9853 4.01472 18 6.5 18H9" stroke="#000000" stroke-linecap="round" stroke-linejoin="round"/>
<path d="M12 20L12 11M12 11L8 15M12 11L16 15" stroke="#000000" stroke-linecap="round" stroke-linejoin="round"/>
</g>
<defs>
<clipPath id="clip0_15_56">
<rect width="24" height="24" fill="white"/>
</clipPath>
</defs>
</svg>