<svg xmlns="http://www.w3.org/2000/svg" version="1.1" viewBox="-5.0 -10.0 110.0 135.0">
 <path d="m7 18.383c-1.1055 0-2-0.89453-2-2 0-1.1055 0.89453-2 2-2h9.1797v-6.543c0-1.1055 0.89453-2 2-2h17.086c1.1055 0 2 0.89453 2 2v6.543h36.105c1.1055 0 2 0.89453 2 2 0 1.1055-0.89453 2-2 2h-36.105v6.543c0 1.1055-0.89453 2-2 2h-17.086c-1.1055 0-2-0.89453-2-2v-6.543zm49.543 58.688h-13.086v13.086h13.086zm-15.086-4h17.086c1.1055 0 2 0.89453 2 2v6.543h32.453c1.1055 0 2 0.89453 2 2s-0.89453 2-2 2h-32.453v6.543c0 1.1055-0.89453 2-2 2h-17.086c-1.1055 0-2-0.89453-2-2v-6.543h-32.457c-1.1055 0-2-0.89453-2-2s0.89453-2 2-2h32.457v-6.543c0-1.1055 0.89453-2 2-2zm38.359-29.613h-13.086v13.086h13.086zm-15.086-4h17.086c1.1055 0 2 0.89453 2 2v6.543h9.1797c1.1055 0 2 0.89453 2 2s-0.89453 2-2 2h-9.1797v6.543c0 1.1055-0.89453 2-2 2h-17.086c-1.1055 0-2-0.89453-2-2v-6.543h-27.656c-1.1055 0-2-0.89453-2-2s0.89453-2 2-2h27.656v-6.543c0-1.1055 0.89453-2 2-2zm-31.461-29.613h-13.086v13.086h13.086zm-6.4414 38.16c1.1055 0 2 0.89453 2 2 0 1.1055-0.89453 2-2 2h-0.20312c-1.1055 0-2-0.89453-2-2 0-1.1055 0.89453-2 2-2zm-8.4531 0c1.1055 0 2 0.89453 2 2 0 1.1055-0.89453 2-2 2h-11.375c-1.1055 0-2-0.89453-2-2 0-1.1055 0.89453-2 2-2zm63.246-29.613c-1.1055 0-2-0.89453-2-2s0.89453-2 2-2h11.375c1.1055 0 2 0.89453 2 2s-0.89453 2-2 2z"/>
</svg>